<mxfile host="65bd71144e">
    <diagram name="P&amp;ID" id="ptwcyao2qoM2ukkbA5NZ">
        <mxGraphModel dx="1699" dy="461" grid="1" gridSize="10" guides="1" tooltips="1" connect="1" arrows="1" fold="1" page="1" pageScale="1" pageWidth="850" pageHeight="1100" math="1" shadow="0">
            <root>
                <mxCell id="0"/>
                <mxCell id="1" parent="0"/>
                <mxCell id="225" value="" style="edgeStyle=elbowEdgeStyle;rounded=0;orthogonalLoop=1;jettySize=auto;html=1;fillColor=#dae8fc;strokeColor=#6c8ebf;endArrow=none;endFill=0;strokeWidth=6;exitX=-0.003;exitY=0.47;exitDx=0;exitDy=0;exitPerimeter=0;" edge="1" parent="1" source="E2To5tkKnf_a1yXdmPDb-52">
                    <mxGeometry relative="1" as="geometry">
                        <mxPoint x="137.89337999999998" y="199" as="sourcePoint"/>
                        <mxPoint x="60" y="191" as="targetPoint"/>
                        <Array as="points">
                            <mxPoint x="60" y="190"/>
                            <mxPoint x="70" y="190"/>
                            <mxPoint x="110" y="190"/>
                        </Array>
                    </mxGeometry>
                </mxCell>
                <object label="N2 Tank&amp;nbsp;&lt;br&gt;[2015 psia]&lt;br&gt;(40 cuft)" Price="115.95" Cv="0.698" Volume_cuft="40" MAWP_psia="2015" Link="https://www.amazon.com/Steel-Argon-Cylinder-CGA580-Valve/dp/B01E2T6WAG/ref=pd_ci_mcx_mh_mcx_views_0?pd_rd_w=sdqjH&amp;content-id=amzn1.sym.225b4624-972d-4629-9040-f1bf9923dd95%3Aamzn1.symc.40e6a10e-cbc4-4fa5-81e3-4435ff64d03b&amp;pf_rd_p=225b4624-972d-4629-9040-f1bf9923dd95&amp;pf_rd_r=3GNGK285CPY40EQPE5YW&amp;pd_rd_wg=vS0EU&amp;pd_rd_r=341640d1-0656-4622-8a0f-2962e38f821b&amp;pd_rd_i=B01E2T6WAG" id="E2To5tkKnf_a1yXdmPDb-1">
                    <mxCell style="shape=mxgraph.pid.vessels.gas_bottle;html=1;pointerEvents=1;align=center;verticalLabelPosition=middle;verticalAlign=middle;dashed=0;rotation=90;horizontal=0;labelPosition=center;deletable=0;" parent="1" vertex="1">
                        <mxGeometry x="151.25" y="-33" width="51.58" height="270" as="geometry"/>
                    </mxCell>
                </object>
                <mxCell id="E2To5tkKnf_a1yXdmPDb-53" value="OX-CGA-092" style="text;strokeColor=none;align=center;fillColor=none;html=1;verticalAlign=middle;whiteSpace=wrap;rounded=0;" parent="1" vertex="1">
                    <mxGeometry x="115.05" y="149" width="101" height="30" as="geometry"/>
                </mxCell>
                <mxCell id="E2To5tkKnf_a1yXdmPDb-58" value="" style="edgeStyle=none;rounded=0;orthogonalLoop=1;jettySize=auto;html=1;endArrow=none;endFill=0;fillColor=#d5e8d4;strokeColor=#82b366;strokeWidth=4;" parent="1" source="E2To5tkKnf_a1yXdmPDb-54" target="E2To5tkKnf_a1yXdmPDb-1" edge="1">
                    <mxGeometry relative="1" as="geometry"/>
                </mxCell>
                <mxCell id="E2To5tkKnf_a1yXdmPDb-62" value="" style="edgeStyle=none;rounded=0;orthogonalLoop=1;jettySize=auto;html=1;entryX=0;entryY=0.7;entryDx=0;entryDy=0;entryPerimeter=0;endArrow=none;endFill=0;fillColor=#d5e8d4;strokeColor=#82b366;strokeWidth=4;exitX=1.033;exitY=0.5;exitDx=0;exitDy=0;exitPerimeter=0;" parent="1" source="E2To5tkKnf_a1yXdmPDb-54" target="E2To5tkKnf_a1yXdmPDb-2" edge="1">
                    <mxGeometry relative="1" as="geometry">
                        <mxPoint x="420" y="102" as="sourcePoint"/>
                    </mxGeometry>
                </mxCell>
                <mxCell id="E2To5tkKnf_a1yXdmPDb-10" value="" style="group;rotation=90;" parent="1" vertex="1" connectable="0">
                    <mxGeometry x="531.25" y="64" width="40" height="50" as="geometry"/>
                </mxCell>
                <mxCell id="E2To5tkKnf_a1yXdmPDb-2" value="N2-REG-015" style="verticalLabelPosition=bottom;align=center;html=1;verticalAlign=top;pointerEvents=1;dashed=0;shape=mxgraph.pid2valves.valve;valveType=gate;actuator=diaph;points=[[0,0.7,0,0,0],[1,0.7,0,0,0]];" parent="E2To5tkKnf_a1yXdmPDb-10" vertex="1">
                    <mxGeometry y="10" width="40" height="40" as="geometry"/>
                </mxCell>
                <mxCell id="E2To5tkKnf_a1yXdmPDb-6" value="" style="endArrow=none;html=1;rounded=0;exitX=0.501;exitY=0.11;exitDx=0;exitDy=0;exitPerimeter=0;" parent="E2To5tkKnf_a1yXdmPDb-10" source="E2To5tkKnf_a1yXdmPDb-2" edge="1">
                    <mxGeometry width="50" height="50" relative="1" as="geometry">
                        <mxPoint x="100" y="40" as="sourcePoint"/>
                        <mxPoint x="20" as="targetPoint"/>
                    </mxGeometry>
                </mxCell>
                <mxCell id="E2To5tkKnf_a1yXdmPDb-7" value="" style="endArrow=none;html=1;rounded=0;" parent="E2To5tkKnf_a1yXdmPDb-10" edge="1">
                    <mxGeometry width="50" height="50" relative="1" as="geometry">
                        <mxPoint x="40" as="sourcePoint"/>
                        <mxPoint x="20" as="targetPoint"/>
                    </mxGeometry>
                </mxCell>
                <mxCell id="E2To5tkKnf_a1yXdmPDb-8" value="" style="endArrow=none;html=1;rounded=0;" parent="E2To5tkKnf_a1yXdmPDb-10" edge="1">
                    <mxGeometry width="50" height="50" relative="1" as="geometry">
                        <mxPoint x="40" y="20" as="sourcePoint"/>
                        <mxPoint x="40" as="targetPoint"/>
                    </mxGeometry>
                </mxCell>
                <mxCell id="E2To5tkKnf_a1yXdmPDb-9" value="" style="endArrow=none;html=1;rounded=0;exitX=0.501;exitY=0.691;exitDx=0;exitDy=0;exitPerimeter=0;" parent="E2To5tkKnf_a1yXdmPDb-10" source="E2To5tkKnf_a1yXdmPDb-2" edge="1">
                    <mxGeometry width="50" height="50" relative="1" as="geometry">
                        <mxPoint x="50" y="30" as="sourcePoint"/>
                        <mxPoint x="40" y="20" as="targetPoint"/>
                    </mxGeometry>
                </mxCell>
                <mxCell id="E2To5tkKnf_a1yXdmPDb-14" style="edgeStyle=none;rounded=0;orthogonalLoop=1;jettySize=auto;html=1;entryX=0;entryY=0.5;entryDx=0;entryDy=0;entryPerimeter=0;" parent="E2To5tkKnf_a1yXdmPDb-10" source="E2To5tkKnf_a1yXdmPDb-2" target="E2To5tkKnf_a1yXdmPDb-2" edge="1">
                    <mxGeometry relative="1" as="geometry"/>
                </mxCell>
                <mxCell id="324" value="" style="edgeStyle=none;rounded=0;orthogonalLoop=1;jettySize=auto;html=1;endArrow=none;endFill=0;fillColor=#d5e8d4;strokeColor=#82b366;strokeWidth=1;entryX=0.5;entryY=0;entryDx=0;entryDy=0;entryPerimeter=0;" edge="1" parent="E2To5tkKnf_a1yXdmPDb-10">
                    <mxGeometry relative="1" as="geometry">
                        <mxPoint x="-0.4199999999999591" y="30" as="sourcePoint"/>
                        <mxPoint x="-0.42000000000018645" y="10" as="targetPoint"/>
                    </mxGeometry>
                </mxCell>
                <mxCell id="E2To5tkKnf_a1yXdmPDb-54" value="N2-CGA-011" style="verticalLabelPosition=bottom;align=center;html=1;verticalAlign=top;pointerEvents=1;dashed=0;shape=mxgraph.pid2valves.valve;valveType=needle;rotation=0;" parent="1" vertex="1">
                    <mxGeometry x="332.25000000000006" y="92" width="33.33" height="20" as="geometry"/>
                </mxCell>
                <mxCell id="17" value="" style="edgeStyle=none;rounded=1;html=1;strokeWidth=8;fontSize=2;endArrow=none;endFill=0;entryX=0;entryY=0.7;entryDx=0;entryDy=0;entryPerimeter=0;fillColor=#f8cecc;strokeColor=#b85450;startArrow=none;exitX=1;exitY=0.7;exitDx=0;exitDy=0;exitPerimeter=0;" parent="1" source="138" target="14" edge="1">
                    <mxGeometry relative="1" as="geometry"/>
                </mxCell>
                <mxCell id="7" value="IPA TANK&lt;br&gt;[215 psia]&lt;br&gt;(??? cuft)" style="shape=mxgraph.pid.vessels.pressurized_vessel;html=1;pointerEvents=1;align=center;verticalLabelPosition=middle;verticalAlign=middle;dashed=0;horizontal=1;labelPosition=center;" parent="1" vertex="1">
                    <mxGeometry x="550" y="177" width="100" height="201" as="geometry"/>
                </mxCell>
                <mxCell id="11" value="N2-BD-010" style="group;verticalAlign=bottom;horizontal=1;labelPosition=center;verticalLabelPosition=top;align=center;" parent="1" vertex="1" connectable="0">
                    <mxGeometry x="302" y="73" width="29.890000000000043" height="7" as="geometry"/>
                </mxCell>
                <mxCell id="8" value="" style="endArrow=none;html=1;strokeWidth=1;rounded=1;" parent="11" edge="1">
                    <mxGeometry width="50" height="50" relative="1" as="geometry">
                        <mxPoint y="7" as="sourcePoint"/>
                        <mxPoint x="10" y="7" as="targetPoint"/>
                    </mxGeometry>
                </mxCell>
                <mxCell id="9" value="" style="endArrow=none;html=1;strokeWidth=1;fontSize=2;" parent="11" edge="1">
                    <mxGeometry width="50" height="50" relative="1" as="geometry">
                        <mxPoint x="19.890000000000043" y="7" as="sourcePoint"/>
                        <mxPoint x="29.890000000000043" y="7" as="targetPoint"/>
                    </mxGeometry>
                </mxCell>
                <mxCell id="10" value="" style="verticalLabelPosition=bottom;verticalAlign=top;html=1;shape=mxgraph.basic.half_circle;rotation=-180;" parent="11" vertex="1">
                    <mxGeometry x="7" width="14" height="7" as="geometry"/>
                </mxCell>
                <mxCell id="12" value="" style="edgeStyle=none;rounded=0;orthogonalLoop=1;jettySize=auto;html=1;endArrow=none;endFill=0;fillColor=#d5e8d4;strokeColor=#82b366;strokeWidth=1;entryX=0.5;entryY=0;entryDx=0;entryDy=0;entryPerimeter=0;" parent="1" target="10" edge="1">
                    <mxGeometry relative="1" as="geometry">
                        <mxPoint x="316" y="100" as="sourcePoint"/>
                        <mxPoint x="322.03999999999996" y="112.00000000000003" as="targetPoint"/>
                    </mxGeometry>
                </mxCell>
                <mxCell id="30" value="OX-V-095" style="text;strokeColor=none;align=center;fillColor=none;html=1;verticalAlign=middle;whiteSpace=wrap;rounded=0;" parent="1" vertex="1">
                    <mxGeometry x="86.78999999999999" y="385" width="97.21" height="30" as="geometry"/>
                </mxCell>
                <mxCell id="31" value="F-V-052" style="text;strokeColor=none;align=center;fillColor=none;html=1;verticalAlign=middle;whiteSpace=wrap;rounded=0;" parent="1" vertex="1">
                    <mxGeometry x="503" y="384" width="97.21" height="30" as="geometry"/>
                </mxCell>
                <mxCell id="42" value="" style="group;rotation=90;" parent="1" vertex="1" connectable="0">
                    <mxGeometry x="359.88999999999993" y="680" width="45.10999999999996" height="100" as="geometry"/>
                </mxCell>
                <mxCell id="237" value="" style="edgeStyle=none;rounded=0;orthogonalLoop=1;jettySize=auto;html=1;endArrow=none;endFill=0;fillColor=#ffe6cc;strokeColor=#d79b00;strokeWidth=1;" edge="1" parent="42">
                    <mxGeometry relative="1" as="geometry">
                        <mxPoint x="0.11000000000007049" y="32" as="sourcePoint"/>
                        <mxPoint x="0.11000000000007049" y="58" as="targetPoint"/>
                    </mxGeometry>
                </mxCell>
                <mxCell id="32" value="" style="endArrow=none;html=1;rounded=1;strokeWidth=1;fontSize=2;" parent="42" edge="1">
                    <mxGeometry width="50" height="50" relative="1" as="geometry">
                        <mxPoint x="13.284623048821004" y="50" as="sourcePoint"/>
                        <mxPoint x="1.887858480930189e-14" y="33.333333333333336" as="targetPoint"/>
                    </mxGeometry>
                </mxCell>
                <mxCell id="33" value="" style="endArrow=none;html=1;rounded=1;strokeWidth=1;fontSize=2;" parent="42" edge="1">
                    <mxGeometry width="50" height="50" relative="1" as="geometry">
                        <mxPoint x="1.887858480930189e-14" y="100" as="sourcePoint"/>
                        <mxPoint x="13.284623048821004" y="50" as="targetPoint"/>
                    </mxGeometry>
                </mxCell>
                <mxCell id="34" value="" style="endArrow=none;html=1;rounded=1;strokeWidth=1;fontSize=2;" parent="42" edge="1">
                    <mxGeometry width="50" height="50" relative="1" as="geometry">
                        <mxPoint x="39.853869146462976" y="100" as="sourcePoint"/>
                        <mxPoint x="26.569246097641987" y="50" as="targetPoint"/>
                    </mxGeometry>
                </mxCell>
                <mxCell id="35" value="" style="endArrow=none;html=1;rounded=1;strokeWidth=1;fontSize=2;" parent="42" edge="1">
                    <mxGeometry width="50" height="50" relative="1" as="geometry">
                        <mxPoint x="26.569246097641987" y="50" as="sourcePoint"/>
                        <mxPoint x="39.853869146462976" y="33.333333333333336" as="targetPoint"/>
                    </mxGeometry>
                </mxCell>
                <mxCell id="36" value="" style="endArrow=none;html=1;rounded=1;strokeWidth=1;fontSize=2;" parent="42" edge="1">
                    <mxGeometry width="50" height="50" relative="1" as="geometry">
                        <mxPoint y="33.333333333333336" as="sourcePoint"/>
                        <mxPoint x="0.14613085353704897" as="targetPoint"/>
                    </mxGeometry>
                </mxCell>
                <mxCell id="41" value="" style="endArrow=none;html=1;rounded=1;strokeWidth=1;fontSize=2;" parent="42" edge="1">
                    <mxGeometry width="50" height="50" relative="1" as="geometry">
                        <mxPoint x="0.14613085353704897" as="sourcePoint"/>
                        <mxPoint x="40" as="targetPoint"/>
                    </mxGeometry>
                </mxCell>
                <mxCell id="51" value="" style="endArrow=none;html=1;rounded=1;strokeWidth=1;fontSize=2;" parent="42" edge="1">
                    <mxGeometry width="50" height="50" relative="1" as="geometry">
                        <mxPoint x="40" y="33.33333333333326" as="sourcePoint"/>
                        <mxPoint x="40.146130853537045" y="-1.1368683772161603e-13" as="targetPoint"/>
                    </mxGeometry>
                </mxCell>
                <mxCell id="230" value="" style="group;rotation=-90;" vertex="1" connectable="0" parent="42">
                    <mxGeometry x="-75.38999999999993" y="30" width="100" height="49" as="geometry"/>
                </mxCell>
                <mxCell id="231" value="" style="group;rotation=-90;" vertex="1" connectable="0" parent="230">
                    <mxGeometry x="55" y="17" width="15" height="24" as="geometry"/>
                </mxCell>
                <mxCell id="232" value="" style="ellipse;whiteSpace=wrap;html=1;aspect=fixed;rotation=-90;" vertex="1" parent="231">
                    <mxGeometry x="-4" y="3" width="15" height="15" as="geometry"/>
                </mxCell>
                <mxCell id="233" value="" style="endArrow=none;html=1;" edge="1" parent="231">
                    <mxGeometry width="50" height="50" relative="1" as="geometry">
                        <mxPoint x="20" y="10" as="sourcePoint"/>
                        <mxPoint x="11" y="10" as="targetPoint"/>
                        <Array as="points"/>
                    </mxGeometry>
                </mxCell>
                <mxCell id="234" value="" style="endArrow=none;html=1;entryX=1;entryY=0;entryDx=0;entryDy=0;exitX=0;exitY=1;exitDx=0;exitDy=0;" edge="1" parent="231" source="232" target="232">
                    <mxGeometry width="50" height="50" relative="1" as="geometry">
                        <mxPoint x="46" y="54" as="sourcePoint"/>
                        <mxPoint x="-4" y="4" as="targetPoint"/>
                    </mxGeometry>
                </mxCell>
                <mxCell id="235" value="" style="endArrow=none;html=1;entryX=0;entryY=0;entryDx=0;entryDy=0;exitX=1;exitY=1;exitDx=0;exitDy=0;" edge="1" parent="231" source="232" target="232">
                    <mxGeometry width="50" height="50" relative="1" as="geometry">
                        <mxPoint x="18" y="7" as="sourcePoint"/>
                        <mxPoint x="8" y="-3" as="targetPoint"/>
                    </mxGeometry>
                </mxCell>
                <mxCell id="236" value="&lt;span style=&quot;&quot;&gt;CH-PT-102&lt;/span&gt;" style="text;strokeColor=none;align=center;fillColor=none;html=1;verticalAlign=middle;whiteSpace=wrap;rounded=0;rotation=0;" vertex="1" parent="42">
                    <mxGeometry x="-115.38999999999993" y="44" width="100" height="30" as="geometry"/>
                </mxCell>
                <mxCell id="239" value="" style="group;rotation=90;" vertex="1" connectable="0" parent="42">
                    <mxGeometry x="31.109999999999957" y="38" width="15" height="24" as="geometry"/>
                </mxCell>
                <mxCell id="240" value="" style="ellipse;whiteSpace=wrap;html=1;aspect=fixed;rotation=90;" vertex="1" parent="239">
                    <mxGeometry x="5" y="5" width="15" height="15" as="geometry"/>
                </mxCell>
                <mxCell id="241" value="" style="endArrow=none;html=1;" edge="1" parent="239">
                    <mxGeometry width="50" height="50" relative="1" as="geometry">
                        <mxPoint x="-4" y="12" as="sourcePoint"/>
                        <mxPoint x="5" y="12" as="targetPoint"/>
                        <Array as="points"/>
                    </mxGeometry>
                </mxCell>
                <mxCell id="242" value="T" style="text;strokeColor=none;align=center;fillColor=none;html=1;verticalAlign=middle;whiteSpace=wrap;rounded=0;textDirection=ltr;rotation=90;" vertex="1" parent="239">
                    <mxGeometry x="8" y="7" width="7.5" height="10" as="geometry"/>
                </mxCell>
                <mxCell id="68" value="" style="edgeStyle=orthogonalEdgeStyle;rounded=0;orthogonalLoop=1;jettySize=auto;html=1;fillColor=#dae8fc;strokeColor=#6c8ebf;endArrow=none;endFill=0;strokeWidth=6;" parent="1" edge="1">
                    <mxGeometry relative="1" as="geometry">
                        <mxPoint x="190" y="504" as="sourcePoint"/>
                        <mxPoint x="340" y="630" as="targetPoint"/>
                        <Array as="points">
                            <mxPoint x="190" y="570"/>
                            <mxPoint x="340" y="570"/>
                        </Array>
                    </mxGeometry>
                </mxCell>
                <mxCell id="69" value="" style="edgeStyle=orthogonalEdgeStyle;rounded=0;orthogonalLoop=1;jettySize=auto;html=1;fillColor=#dae8fc;strokeColor=#6c8ebf;endArrow=none;endFill=0;strokeWidth=6;" parent="1" edge="1">
                    <mxGeometry relative="1" as="geometry">
                        <mxPoint x="360" y="690" as="sourcePoint"/>
                        <mxPoint x="340" y="650" as="targetPoint"/>
                        <Array as="points">
                            <mxPoint x="340" y="690"/>
                        </Array>
                    </mxGeometry>
                </mxCell>
                <mxCell id="71" value="" style="edgeStyle=orthogonalEdgeStyle;rounded=0;orthogonalLoop=1;jettySize=auto;html=1;fillColor=#f8cecc;strokeColor=#b85450;endArrow=none;endFill=0;strokeWidth=6;" parent="1" edge="1">
                    <mxGeometry relative="1" as="geometry">
                        <mxPoint x="400" y="690" as="sourcePoint"/>
                        <mxPoint x="420" y="650" as="targetPoint"/>
                        <Array as="points">
                            <mxPoint x="420" y="690"/>
                        </Array>
                    </mxGeometry>
                </mxCell>
                <mxCell id="55" value="" style="group;rotation=90;" parent="1" vertex="1" connectable="0">
                    <mxGeometry x="330" y="625" width="20" height="30" as="geometry"/>
                </mxCell>
                <mxCell id="43" value="" style="endArrow=none;html=1;rounded=1;strokeWidth=1;fontSize=2;" parent="55" edge="1">
                    <mxGeometry width="50" height="50" relative="1" as="geometry">
                        <mxPoint x="5" y="5" as="sourcePoint"/>
                        <mxPoint x="15" y="5" as="targetPoint"/>
                    </mxGeometry>
                </mxCell>
                <mxCell id="52" value="" style="endArrow=none;html=1;rounded=1;strokeWidth=1;fontSize=2;" parent="55" edge="1">
                    <mxGeometry width="50" height="50" relative="1" as="geometry">
                        <mxPoint x="-5" y="15" as="sourcePoint"/>
                        <mxPoint x="25" y="15" as="targetPoint"/>
                    </mxGeometry>
                </mxCell>
                <mxCell id="53" value="" style="endArrow=none;html=1;rounded=1;strokeWidth=1;fontSize=2;" parent="55" edge="1">
                    <mxGeometry width="50" height="50" relative="1" as="geometry">
                        <mxPoint x="5" y="25" as="sourcePoint"/>
                        <mxPoint x="15" y="25" as="targetPoint"/>
                    </mxGeometry>
                </mxCell>
                <mxCell id="72" value="" style="edgeStyle=orthogonalEdgeStyle;rounded=0;orthogonalLoop=1;jettySize=auto;html=1;fillColor=#f8cecc;strokeColor=#b85450;endArrow=none;endFill=0;strokeWidth=6;entryX=0.997;entryY=0.498;entryDx=0;entryDy=0;entryPerimeter=0;" parent="1" target="312" edge="1">
                    <mxGeometry relative="1" as="geometry">
                        <mxPoint x="425" y="632" as="sourcePoint"/>
                        <mxPoint x="635" y="542" as="targetPoint"/>
                        <Array as="points">
                            <mxPoint x="425" y="572"/>
                            <mxPoint x="600" y="572"/>
                        </Array>
                    </mxGeometry>
                </mxCell>
                <mxCell id="56" value="" style="group;rotation=90;" parent="1" vertex="1" connectable="0">
                    <mxGeometry x="410" y="625" width="20" height="30" as="geometry"/>
                </mxCell>
                <mxCell id="57" value="" style="endArrow=none;html=1;rounded=1;strokeWidth=1;fontSize=2;" parent="56" edge="1">
                    <mxGeometry width="50" height="50" relative="1" as="geometry">
                        <mxPoint x="5" y="5" as="sourcePoint"/>
                        <mxPoint x="15" y="5" as="targetPoint"/>
                    </mxGeometry>
                </mxCell>
                <mxCell id="58" value="" style="endArrow=none;html=1;rounded=1;strokeWidth=1;fontSize=2;" parent="56" edge="1">
                    <mxGeometry width="50" height="50" relative="1" as="geometry">
                        <mxPoint x="-5" y="15" as="sourcePoint"/>
                        <mxPoint x="25" y="15" as="targetPoint"/>
                    </mxGeometry>
                </mxCell>
                <mxCell id="59" value="" style="endArrow=none;html=1;rounded=1;strokeWidth=1;fontSize=2;" parent="56" edge="1">
                    <mxGeometry width="50" height="50" relative="1" as="geometry">
                        <mxPoint x="5" y="25" as="sourcePoint"/>
                        <mxPoint x="15" y="25" as="targetPoint"/>
                    </mxGeometry>
                </mxCell>
                <mxCell id="73" value="" style="shape=ext;double=0;rounded=1;whiteSpace=wrap;html=1;fontSize=2;gradientColor=default;fillColor=none;dashed=1;perimeterSpacing=0;" parent="1" vertex="1">
                    <mxGeometry x="280" y="600" width="200" height="80" as="geometry"/>
                </mxCell>
                <mxCell id="79" value="" style="edgeStyle=elbowEdgeStyle;rounded=0;orthogonalLoop=1;jettySize=auto;html=1;fillColor=#dae8fc;strokeColor=#6c8ebf;endArrow=none;endFill=0;strokeWidth=6;exitX=1;exitY=0.7;exitDx=0;exitDy=0;exitPerimeter=0;" parent="1" edge="1">
                    <mxGeometry relative="1" as="geometry">
                        <mxPoint x="316.99" y="505" as="sourcePoint"/>
                        <mxPoint x="190" y="530" as="targetPoint"/>
                        <Array as="points">
                            <mxPoint x="317" y="510"/>
                        </Array>
                    </mxGeometry>
                </mxCell>
                <mxCell id="80" value="" style="edgeStyle=orthogonalEdgeStyle;rounded=0;orthogonalLoop=1;jettySize=auto;html=1;fillColor=#f8cecc;strokeColor=#b85450;endArrow=none;endFill=0;strokeWidth=6;exitX=1.013;exitY=0.489;exitDx=0;exitDy=0;exitPerimeter=0;" parent="1" source="78" edge="1">
                    <mxGeometry relative="1" as="geometry">
                        <mxPoint x="440.82000000000005" y="505" as="sourcePoint"/>
                        <mxPoint x="600" y="530" as="targetPoint"/>
                        <Array as="points">
                            <mxPoint x="441" y="530"/>
                        </Array>
                    </mxGeometry>
                </mxCell>
                <mxCell id="88" value="" style="edgeStyle=orthogonalEdgeStyle;rounded=0;orthogonalLoop=1;jettySize=auto;html=1;endArrow=none;endFill=0;fillColor=#d5e8d4;strokeColor=#82b366;strokeWidth=4;entryX=-0.049;entryY=0.53;entryDx=0;entryDy=0;entryPerimeter=0;" parent="1" edge="1">
                    <mxGeometry relative="1" as="geometry">
                        <mxPoint x="380" y="380" as="sourcePoint"/>
                        <mxPoint x="317.4" y="473.53" as="targetPoint"/>
                        <Array as="points">
                            <mxPoint x="380" y="385"/>
                            <mxPoint x="380" y="430"/>
                            <mxPoint x="317" y="430"/>
                        </Array>
                    </mxGeometry>
                </mxCell>
                <mxCell id="89" value="" style="edgeStyle=orthogonalEdgeStyle;rounded=0;orthogonalLoop=1;jettySize=auto;html=1;endArrow=none;endFill=0;fillColor=#d5e8d4;strokeColor=#82b366;strokeWidth=4;" parent="1" edge="1">
                    <mxGeometry relative="1" as="geometry">
                        <mxPoint x="380" y="380" as="sourcePoint"/>
                        <mxPoint x="440" y="470" as="targetPoint"/>
                        <Array as="points">
                            <mxPoint x="380" y="390"/>
                            <mxPoint x="380" y="430"/>
                            <mxPoint x="440" y="430"/>
                        </Array>
                    </mxGeometry>
                </mxCell>
                <mxCell id="103" value="" style="edgeStyle=none;rounded=0;orthogonalLoop=1;jettySize=auto;html=1;endArrow=none;endFill=0;fillColor=#d5e8d4;strokeColor=#82b366;strokeWidth=1;entryX=0.5;entryY=0;entryDx=0;entryDy=0;entryPerimeter=0;" parent="1" edge="1">
                    <mxGeometry relative="1" as="geometry">
                        <mxPoint x="465.43000000000006" y="100" as="sourcePoint"/>
                        <mxPoint x="465.42999999999984" y="80.00000000000003" as="targetPoint"/>
                    </mxGeometry>
                </mxCell>
                <mxCell id="110" value="" style="edgeStyle=none;rounded=0;orthogonalLoop=1;jettySize=auto;html=1;endArrow=none;endFill=0;fillColor=#d5e8d4;strokeColor=#82b366;strokeWidth=1;" parent="1" edge="1">
                    <mxGeometry relative="1" as="geometry">
                        <mxPoint x="392" y="80" as="sourcePoint"/>
                        <mxPoint x="466" y="80" as="targetPoint"/>
                    </mxGeometry>
                </mxCell>
                <mxCell id="113" value="" style="group" parent="1" vertex="1" connectable="0">
                    <mxGeometry x="342" y="31" width="100" height="49" as="geometry"/>
                </mxCell>
                <mxCell id="101" value="" style="group" parent="113" vertex="1" connectable="0">
                    <mxGeometry x="42.5" y="25" width="15" height="24" as="geometry"/>
                </mxCell>
                <mxCell id="92" value="" style="ellipse;whiteSpace=wrap;html=1;aspect=fixed;" parent="101" vertex="1">
                    <mxGeometry width="15" height="15" as="geometry"/>
                </mxCell>
                <mxCell id="97" value="" style="endArrow=none;html=1;" parent="101" edge="1">
                    <mxGeometry width="50" height="50" relative="1" as="geometry">
                        <mxPoint x="7.560000000000002" y="24" as="sourcePoint"/>
                        <mxPoint x="7.449999999999989" y="15" as="targetPoint"/>
                        <Array as="points"/>
                    </mxGeometry>
                </mxCell>
                <mxCell id="99" value="" style="endArrow=none;html=1;entryX=1;entryY=0;entryDx=0;entryDy=0;exitX=0;exitY=1;exitDx=0;exitDy=0;" parent="101" source="92" target="92" edge="1">
                    <mxGeometry width="50" height="50" relative="1" as="geometry">
                        <mxPoint x="-34.99999999999997" y="50" as="sourcePoint"/>
                        <mxPoint x="15" as="targetPoint"/>
                    </mxGeometry>
                </mxCell>
                <mxCell id="100" value="" style="endArrow=none;html=1;entryX=0;entryY=0;entryDx=0;entryDy=0;exitX=1;exitY=1;exitDx=0;exitDy=0;" parent="101" source="92" target="92" edge="1">
                    <mxGeometry width="50" height="50" relative="1" as="geometry">
                        <mxPoint x="12.196699141099657" y="22.8033008589004" as="sourcePoint"/>
                        <mxPoint x="22.803300858900343" y="12.196699141099714" as="targetPoint"/>
                    </mxGeometry>
                </mxCell>
                <mxCell id="111" value="&lt;span style=&quot;&quot;&gt;N2-PT-012&lt;/span&gt;" style="text;strokeColor=none;align=center;fillColor=none;html=1;verticalAlign=middle;whiteSpace=wrap;rounded=0;" parent="113" vertex="1">
                    <mxGeometry width="100" height="30" as="geometry"/>
                </mxCell>
                <mxCell id="116" value="" style="group;rotation=-90;" parent="1" vertex="1" connectable="0">
                    <mxGeometry x="530.5" y="205" width="15" height="24" as="geometry"/>
                </mxCell>
                <mxCell id="117" value="" style="ellipse;whiteSpace=wrap;html=1;aspect=fixed;rotation=-90;" parent="116" vertex="1">
                    <mxGeometry x="-4" y="5" width="15" height="15" as="geometry"/>
                </mxCell>
                <mxCell id="118" value="" style="endArrow=none;html=1;" parent="116" edge="1">
                    <mxGeometry width="50" height="50" relative="1" as="geometry">
                        <mxPoint x="20" y="12" as="sourcePoint"/>
                        <mxPoint x="11" y="12" as="targetPoint"/>
                        <Array as="points"/>
                    </mxGeometry>
                </mxCell>
                <mxCell id="119" value="" style="endArrow=none;html=1;entryX=1;entryY=0;entryDx=0;entryDy=0;exitX=0;exitY=1;exitDx=0;exitDy=0;" parent="116" source="117" target="117" edge="1">
                    <mxGeometry width="50" height="50" relative="1" as="geometry">
                        <mxPoint x="46" y="54" as="sourcePoint"/>
                        <mxPoint x="-4" y="4" as="targetPoint"/>
                    </mxGeometry>
                </mxCell>
                <mxCell id="120" value="" style="endArrow=none;html=1;entryX=0;entryY=0;entryDx=0;entryDy=0;exitX=1;exitY=1;exitDx=0;exitDy=0;" parent="116" source="117" target="117" edge="1">
                    <mxGeometry width="50" height="50" relative="1" as="geometry">
                        <mxPoint x="18" y="7" as="sourcePoint"/>
                        <mxPoint x="8" y="-3" as="targetPoint"/>
                    </mxGeometry>
                </mxCell>
                <mxCell id="121" value="&lt;span style=&quot;&quot;&gt;N2-PT-018&lt;/span&gt;" style="text;strokeColor=none;align=center;fillColor=none;html=1;verticalAlign=middle;whiteSpace=wrap;rounded=0;" parent="1" vertex="1">
                    <mxGeometry x="430.5" y="203" width="100" height="30" as="geometry"/>
                </mxCell>
                <mxCell id="122" value="" style="group;rotation=-90;" parent="1" vertex="1" connectable="0">
                    <mxGeometry x="530" y="228" width="15" height="24" as="geometry"/>
                </mxCell>
                <mxCell id="123" value="" style="ellipse;whiteSpace=wrap;html=1;aspect=fixed;rotation=-90;" parent="122" vertex="1">
                    <mxGeometry x="-4" y="5" width="15" height="15" as="geometry"/>
                </mxCell>
                <mxCell id="124" value="" style="endArrow=none;html=1;" parent="122" edge="1">
                    <mxGeometry width="50" height="50" relative="1" as="geometry">
                        <mxPoint x="20" y="12" as="sourcePoint"/>
                        <mxPoint x="11" y="12" as="targetPoint"/>
                        <Array as="points"/>
                    </mxGeometry>
                </mxCell>
                <mxCell id="125" value="T" style="text;strokeColor=none;align=center;fillColor=none;html=1;verticalAlign=middle;whiteSpace=wrap;rounded=0;textDirection=ltr;rotation=-90;" parent="122" vertex="1">
                    <mxGeometry x="-1" y="7" width="7.5" height="10" as="geometry"/>
                </mxCell>
                <mxCell id="127" value="&lt;span style=&quot;&quot;&gt;N2-TC-019&lt;/span&gt;" style="text;strokeColor=none;align=center;fillColor=none;html=1;verticalAlign=middle;whiteSpace=wrap;rounded=0;" parent="1" vertex="1">
                    <mxGeometry x="430.5" y="226" width="100" height="30" as="geometry"/>
                </mxCell>
                <mxCell id="128" value="" style="group;rotation=-90;" parent="1" vertex="1" connectable="0">
                    <mxGeometry x="530" y="338" width="15" height="24" as="geometry"/>
                </mxCell>
                <mxCell id="129" value="" style="ellipse;whiteSpace=wrap;html=1;aspect=fixed;rotation=-90;" parent="128" vertex="1">
                    <mxGeometry x="-4" y="5" width="15" height="15" as="geometry"/>
                </mxCell>
                <mxCell id="130" value="" style="endArrow=none;html=1;" parent="128" edge="1">
                    <mxGeometry width="50" height="50" relative="1" as="geometry">
                        <mxPoint x="20" y="12" as="sourcePoint"/>
                        <mxPoint x="11" y="12" as="targetPoint"/>
                        <Array as="points"/>
                    </mxGeometry>
                </mxCell>
                <mxCell id="131" value="" style="endArrow=none;html=1;entryX=1;entryY=0;entryDx=0;entryDy=0;exitX=0;exitY=1;exitDx=0;exitDy=0;" parent="128" source="129" target="129" edge="1">
                    <mxGeometry width="50" height="50" relative="1" as="geometry">
                        <mxPoint x="46" y="54" as="sourcePoint"/>
                        <mxPoint x="-4" y="4" as="targetPoint"/>
                    </mxGeometry>
                </mxCell>
                <mxCell id="132" value="" style="endArrow=none;html=1;entryX=0;entryY=0;entryDx=0;entryDy=0;exitX=1;exitY=1;exitDx=0;exitDy=0;" parent="128" source="129" target="129" edge="1">
                    <mxGeometry width="50" height="50" relative="1" as="geometry">
                        <mxPoint x="18" y="7" as="sourcePoint"/>
                        <mxPoint x="8" y="-3" as="targetPoint"/>
                    </mxGeometry>
                </mxCell>
                <mxCell id="133" value="F-PT-051" style="text;strokeColor=none;align=center;fillColor=none;html=1;verticalAlign=middle;whiteSpace=wrap;rounded=0;" parent="1" vertex="1">
                    <mxGeometry x="430.5" y="335" width="100" height="30" as="geometry"/>
                </mxCell>
                <mxCell id="141" value="F-V-053" style="text;strokeColor=none;align=center;fillColor=none;html=1;verticalAlign=middle;whiteSpace=wrap;rounded=0;" parent="1" vertex="1">
                    <mxGeometry x="503" y="428" width="97.21" height="30" as="geometry"/>
                </mxCell>
                <mxCell id="138" value="" style="verticalLabelPosition=bottom;align=center;html=1;verticalAlign=top;pointerEvents=1;dashed=0;shape=mxgraph.pid2valves.valve;valveType=gate;actuator=man;rotation=90;points=[[0,0.7,0,0,0],[1,0.7,0,0,0]];" parent="1" vertex="1">
                    <mxGeometry x="588" y="379" width="40" height="40" as="geometry"/>
                </mxCell>
                <mxCell id="142" value="" style="edgeStyle=orthogonalEdgeStyle;rounded=0;orthogonalLoop=1;jettySize=auto;html=1;endArrow=none;endFill=0;fillColor=#d5e8d4;strokeColor=#82b366;strokeWidth=4;entryX=0.021;entryY=0.699;entryDx=0;entryDy=0;entryPerimeter=0;" parent="1" target="82" edge="1">
                    <mxGeometry relative="1" as="geometry">
                        <mxPoint x="600" y="170" as="sourcePoint"/>
                        <mxPoint x="380" y="340" as="targetPoint"/>
                    </mxGeometry>
                </mxCell>
                <mxCell id="155" value="" style="edgeStyle=elbowEdgeStyle;rounded=0;orthogonalLoop=1;jettySize=auto;html=1;entryX=0.025;entryY=0.702;entryDx=0;entryDy=0;entryPerimeter=0;fillColor=#dae8fc;strokeColor=#6c8ebf;endArrow=none;endFill=0;strokeWidth=6;exitX=0.986;exitY=0.509;exitDx=0;exitDy=0;exitPerimeter=0;" parent="1" source="E2To5tkKnf_a1yXdmPDb-52" target="18" edge="1">
                    <mxGeometry relative="1" as="geometry">
                        <mxPoint x="190.75916693140323" y="335.8550000000001" as="sourcePoint"/>
                        <mxPoint x="223.07166666666672" y="428.9951833333333" as="targetPoint"/>
                        <Array as="points">
                            <mxPoint x="190" y="374.19"/>
                        </Array>
                    </mxGeometry>
                </mxCell>
                <mxCell id="18" value="" style="verticalLabelPosition=bottom;align=center;html=1;verticalAlign=top;pointerEvents=1;dashed=0;shape=mxgraph.pid2valves.valve;valveType=gate;actuator=solenoid;fontSize=2;rotation=90;points=[[0.3,0,0,0,0],[0.3,1,0,0,0]];" parent="1" vertex="1">
                    <mxGeometry x="178.83000000000004" y="379" width="40" height="40" as="geometry"/>
                </mxCell>
                <mxCell id="77" value="" style="verticalLabelPosition=bottom;align=center;html=1;verticalAlign=top;pointerEvents=1;dashed=0;shape=mxgraph.pid2valves.valve;valveType=check;rounded=1;strokeWidth=2;fontSize=2;fillColor=none;gradientColor=default;rotation=90;" parent="1" vertex="1">
                    <mxGeometry x="302" y="479" width="30" height="20" as="geometry"/>
                </mxCell>
                <mxCell id="78" value="" style="verticalLabelPosition=bottom;align=center;html=1;verticalAlign=top;pointerEvents=1;dashed=0;shape=mxgraph.pid2valves.valve;valveType=check;rounded=1;strokeWidth=2;fontSize=2;fillColor=none;gradientColor=default;rotation=90;" parent="1" vertex="1">
                    <mxGeometry x="426" y="479" width="30" height="20" as="geometry"/>
                </mxCell>
                <mxCell id="82" value="" style="verticalLabelPosition=bottom;align=center;html=1;verticalAlign=top;pointerEvents=1;dashed=0;shape=mxgraph.pid2valves.valve;valveType=gate;actuator=solenoid;fontSize=2;rotation=90;points=[[0.3,0,0,0,0],[0.3,1,0,0,0]];fillColor=#f5f5f5;fontColor=#333333;strokeColor=#666666;" parent="1" vertex="1">
                    <mxGeometry x="367.89000000000004" y="344" width="40" height="40" as="geometry"/>
                </mxCell>
                <mxCell id="E2To5tkKnf_a1yXdmPDb-52" value="" style="verticalLabelPosition=bottom;align=center;html=1;verticalAlign=top;pointerEvents=1;dashed=0;shape=mxgraph.pid2valves.valve;valveType=needle;rotation=0;" parent="1" vertex="1">
                    <mxGeometry x="148.89" y="181" width="33.33" height="20" as="geometry"/>
                </mxCell>
                <mxCell id="160" value="" style="group" parent="1" vertex="1" connectable="0">
                    <mxGeometry x="415.5" y="31" width="100" height="49" as="geometry"/>
                </mxCell>
                <mxCell id="104" value="" style="group" parent="160" vertex="1" connectable="0">
                    <mxGeometry x="42.5" y="25" width="15" height="24" as="geometry"/>
                </mxCell>
                <mxCell id="105" value="" style="ellipse;whiteSpace=wrap;html=1;aspect=fixed;" parent="104" vertex="1">
                    <mxGeometry width="15" height="15" as="geometry"/>
                </mxCell>
                <mxCell id="106" value="" style="endArrow=none;html=1;" parent="104" edge="1">
                    <mxGeometry width="50" height="50" relative="1" as="geometry">
                        <mxPoint x="7.560000000000002" y="24" as="sourcePoint"/>
                        <mxPoint x="7.449999999999989" y="15" as="targetPoint"/>
                        <Array as="points"/>
                    </mxGeometry>
                </mxCell>
                <mxCell id="109" value="T" style="text;strokeColor=none;align=center;fillColor=none;html=1;verticalAlign=middle;whiteSpace=wrap;rounded=0;textDirection=ltr;" parent="104" vertex="1">
                    <mxGeometry x="3.75" y="2.5" width="7.5" height="10" as="geometry"/>
                </mxCell>
                <mxCell id="112" value="&lt;span style=&quot;&quot;&gt;N2-TC-013&lt;/span&gt;" style="text;strokeColor=none;align=center;fillColor=none;html=1;verticalAlign=middle;whiteSpace=wrap;rounded=0;" parent="160" vertex="1">
                    <mxGeometry width="100" height="30" as="geometry"/>
                </mxCell>
                <mxCell id="177" value="" style="edgeStyle=none;rounded=0;orthogonalLoop=1;jettySize=auto;html=1;endArrow=none;endFill=0;fillColor=#dae8fc;strokeColor=#6c8ebf;strokeWidth=1;" edge="1" parent="1">
                    <mxGeometry relative="1" as="geometry">
                        <mxPoint x="271" y="596" as="sourcePoint"/>
                        <mxPoint x="338" y="596" as="targetPoint"/>
                    </mxGeometry>
                </mxCell>
                <mxCell id="178" value="" style="group;rotation=-90;" vertex="1" connectable="0" parent="1">
                    <mxGeometry x="201" y="632" width="100" height="49" as="geometry"/>
                </mxCell>
                <mxCell id="179" value="" style="group;rotation=-90;" vertex="1" connectable="0" parent="178">
                    <mxGeometry x="55" y="17" width="15" height="24" as="geometry"/>
                </mxCell>
                <mxCell id="180" value="" style="ellipse;whiteSpace=wrap;html=1;aspect=fixed;rotation=-90;" vertex="1" parent="179">
                    <mxGeometry x="-4" y="5" width="15" height="15" as="geometry"/>
                </mxCell>
                <mxCell id="181" value="" style="endArrow=none;html=1;" edge="1" parent="179">
                    <mxGeometry width="50" height="50" relative="1" as="geometry">
                        <mxPoint x="20" y="12" as="sourcePoint"/>
                        <mxPoint x="11" y="12" as="targetPoint"/>
                        <Array as="points"/>
                    </mxGeometry>
                </mxCell>
                <mxCell id="182" value="" style="endArrow=none;html=1;entryX=1;entryY=0;entryDx=0;entryDy=0;exitX=0;exitY=1;exitDx=0;exitDy=0;" edge="1" parent="179" source="180" target="180">
                    <mxGeometry width="50" height="50" relative="1" as="geometry">
                        <mxPoint x="46" y="54" as="sourcePoint"/>
                        <mxPoint x="-4" y="4" as="targetPoint"/>
                    </mxGeometry>
                </mxCell>
                <mxCell id="183" value="" style="endArrow=none;html=1;entryX=0;entryY=0;entryDx=0;entryDy=0;exitX=1;exitY=1;exitDx=0;exitDy=0;" edge="1" parent="179" source="180" target="180">
                    <mxGeometry width="50" height="50" relative="1" as="geometry">
                        <mxPoint x="18" y="7" as="sourcePoint"/>
                        <mxPoint x="8" y="-3" as="targetPoint"/>
                    </mxGeometry>
                </mxCell>
                <mxCell id="184" value="" style="edgeStyle=none;rounded=0;orthogonalLoop=1;jettySize=auto;html=1;endArrow=none;endFill=0;fillColor=#dae8fc;strokeColor=#6c8ebf;strokeWidth=1;" edge="1" parent="1">
                    <mxGeometry relative="1" as="geometry">
                        <mxPoint x="276" y="596" as="sourcePoint"/>
                        <mxPoint x="275.89" y="661.9999999999999" as="targetPoint"/>
                    </mxGeometry>
                </mxCell>
                <mxCell id="185" value="" style="group;rotation=-90;" vertex="1" connectable="0" parent="1">
                    <mxGeometry x="256" y="584" width="15" height="24" as="geometry"/>
                </mxCell>
                <mxCell id="186" value="" style="ellipse;whiteSpace=wrap;html=1;aspect=fixed;rotation=-90;" vertex="1" parent="185">
                    <mxGeometry x="-4" y="5" width="15" height="15" as="geometry"/>
                </mxCell>
                <mxCell id="187" value="" style="endArrow=none;html=1;" edge="1" parent="185">
                    <mxGeometry width="50" height="50" relative="1" as="geometry">
                        <mxPoint x="20" y="12" as="sourcePoint"/>
                        <mxPoint x="11" y="12" as="targetPoint"/>
                        <Array as="points"/>
                    </mxGeometry>
                </mxCell>
                <mxCell id="188" value="T" style="text;strokeColor=none;align=center;fillColor=none;html=1;verticalAlign=middle;whiteSpace=wrap;rounded=0;textDirection=ltr;rotation=-90;" vertex="1" parent="185">
                    <mxGeometry x="-1" y="7" width="7.5" height="10" as="geometry"/>
                </mxCell>
                <mxCell id="189" value="&lt;span style=&quot;&quot;&gt;OX-PT-098&lt;/span&gt;" style="text;strokeColor=none;align=center;fillColor=none;html=1;verticalAlign=middle;whiteSpace=wrap;rounded=0;rotation=0;" vertex="1" parent="1">
                    <mxGeometry x="161" y="646" width="100" height="30" as="geometry"/>
                </mxCell>
                <mxCell id="190" value="&lt;span style=&quot;&quot;&gt;OX-TC-097&lt;/span&gt;" style="text;strokeColor=none;align=center;fillColor=none;html=1;verticalAlign=middle;whiteSpace=wrap;rounded=0;rotation=0;" vertex="1" parent="1">
                    <mxGeometry x="161" y="580.5" width="100" height="30" as="geometry"/>
                </mxCell>
                <mxCell id="192" value="" style="group;rotation=90;" vertex="1" connectable="0" parent="1">
                    <mxGeometry x="524.25" y="720" width="100" height="49" as="geometry"/>
                </mxCell>
                <mxCell id="193" value="" style="group;rotation=90;" vertex="1" connectable="0" parent="192">
                    <mxGeometry x="-32" y="-69" width="15" height="24" as="geometry"/>
                </mxCell>
                <mxCell id="194" value="" style="ellipse;whiteSpace=wrap;html=1;aspect=fixed;rotation=90;" vertex="1" parent="193">
                    <mxGeometry x="4" y="4" width="15" height="15" as="geometry"/>
                </mxCell>
                <mxCell id="195" value="" style="endArrow=none;html=1;" edge="1" parent="193">
                    <mxGeometry width="50" height="50" relative="1" as="geometry">
                        <mxPoint x="-5" y="12" as="sourcePoint"/>
                        <mxPoint x="4" y="12" as="targetPoint"/>
                        <Array as="points"/>
                    </mxGeometry>
                </mxCell>
                <mxCell id="196" value="" style="endArrow=none;html=1;entryX=1;entryY=0;entryDx=0;entryDy=0;exitX=0;exitY=1;exitDx=0;exitDy=0;" edge="1" parent="193" source="194" target="194">
                    <mxGeometry width="50" height="50" relative="1" as="geometry">
                        <mxPoint x="-31" y="-30" as="sourcePoint"/>
                        <mxPoint x="19" y="20" as="targetPoint"/>
                    </mxGeometry>
                </mxCell>
                <mxCell id="197" value="" style="endArrow=none;html=1;entryX=0;entryY=0;entryDx=0;entryDy=0;exitX=1;exitY=1;exitDx=0;exitDy=0;" edge="1" parent="193" source="194" target="194">
                    <mxGeometry width="50" height="50" relative="1" as="geometry">
                        <mxPoint x="-3" y="17" as="sourcePoint"/>
                        <mxPoint x="7" y="27" as="targetPoint"/>
                    </mxGeometry>
                </mxCell>
                <mxCell id="191" value="" style="edgeStyle=none;rounded=0;orthogonalLoop=1;jettySize=auto;html=1;endArrow=none;endFill=0;fillColor=#f8cecc;strokeColor=#b85450;strokeWidth=1;" edge="1" parent="1">
                    <mxGeometry relative="1" as="geometry">
                        <mxPoint x="492" y="598" as="sourcePoint"/>
                        <mxPoint x="421" y="598" as="targetPoint"/>
                    </mxGeometry>
                </mxCell>
                <mxCell id="198" value="" style="edgeStyle=none;rounded=0;orthogonalLoop=1;jettySize=auto;html=1;endArrow=none;endFill=0;fillColor=#f8cecc;strokeColor=#b85450;strokeWidth=1;" edge="1" parent="1">
                    <mxGeometry relative="1" as="geometry">
                        <mxPoint x="487" y="664" as="sourcePoint"/>
                        <mxPoint x="487" y="598" as="targetPoint"/>
                    </mxGeometry>
                </mxCell>
                <mxCell id="199" value="" style="group;rotation=-270;" vertex="1" connectable="0" parent="1">
                    <mxGeometry x="492" y="586" width="15" height="24" as="geometry"/>
                </mxCell>
                <mxCell id="200" value="" style="ellipse;whiteSpace=wrap;html=1;aspect=fixed;rotation=-270;" vertex="1" parent="199">
                    <mxGeometry x="4" y="4" width="15" height="15" as="geometry"/>
                </mxCell>
                <mxCell id="201" value="" style="endArrow=none;html=1;" edge="1" parent="199">
                    <mxGeometry width="50" height="50" relative="1" as="geometry">
                        <mxPoint x="-5" y="12" as="sourcePoint"/>
                        <mxPoint x="4" y="12" as="targetPoint"/>
                        <Array as="points"/>
                    </mxGeometry>
                </mxCell>
                <mxCell id="202" value="T" style="text;strokeColor=none;align=center;fillColor=none;html=1;verticalAlign=middle;whiteSpace=wrap;rounded=0;textDirection=ltr;rotation=-270;" vertex="1" parent="199">
                    <mxGeometry x="9" y="7" width="7.5" height="10" as="geometry"/>
                </mxCell>
                <mxCell id="203" value="&lt;span style=&quot;&quot;&gt;F-PT-055&lt;/span&gt;" style="text;strokeColor=none;align=center;fillColor=none;html=1;verticalAlign=middle;whiteSpace=wrap;rounded=0;rotation=0;" vertex="1" parent="1">
                    <mxGeometry x="502" y="583" width="100" height="30" as="geometry"/>
                </mxCell>
                <mxCell id="204" value="&lt;span style=&quot;&quot;&gt;F-TC-056&lt;/span&gt;" style="text;strokeColor=none;align=center;fillColor=none;html=1;verticalAlign=middle;whiteSpace=wrap;rounded=0;rotation=0;" vertex="1" parent="1">
                    <mxGeometry x="502" y="647.5" width="100" height="30" as="geometry"/>
                </mxCell>
                <mxCell id="209" value="&lt;span style=&quot;&quot;&gt;N2-V-020&lt;/span&gt;" style="text;strokeColor=none;align=center;fillColor=none;html=1;verticalAlign=middle;whiteSpace=wrap;rounded=0;rotation=0;" vertex="1" parent="1">
                    <mxGeometry x="280" y="349" width="100" height="30" as="geometry"/>
                </mxCell>
                <mxCell id="216" value="&lt;span style=&quot;&quot;&gt;CH-TC-100&lt;/span&gt;" style="text;strokeColor=none;align=center;fillColor=none;html=1;verticalAlign=middle;whiteSpace=wrap;rounded=0;rotation=0;" vertex="1" parent="1">
                    <mxGeometry x="245" y="697.5" width="100" height="30" as="geometry"/>
                </mxCell>
                <mxCell id="213" value="" style="ellipse;whiteSpace=wrap;html=1;aspect=fixed;rotation=-90;" vertex="1" parent="1">
                    <mxGeometry x="336" y="705" width="15" height="15" as="geometry"/>
                </mxCell>
                <mxCell id="215" value="T" style="text;strokeColor=none;align=center;fillColor=none;html=1;verticalAlign=middle;whiteSpace=wrap;rounded=0;textDirection=ltr;rotation=-90;" vertex="1" parent="1">
                    <mxGeometry x="339" y="707" width="7.5" height="10" as="geometry"/>
                </mxCell>
                <mxCell id="214" value="" style="endArrow=none;html=1;" edge="1" parent="1">
                    <mxGeometry width="50" height="50" relative="1" as="geometry">
                        <mxPoint x="360" y="712" as="sourcePoint"/>
                        <mxPoint x="351" y="712" as="targetPoint"/>
                        <Array as="points"/>
                    </mxGeometry>
                </mxCell>
                <mxCell id="227" value="" style="group" vertex="1" connectable="0" parent="1">
                    <mxGeometry x="15.895000000000039" y="181" width="143.995" height="140" as="geometry"/>
                </mxCell>
                <object label="" Price="350" Cv="0.698****" Volume_cuft="0.23663194" MAWP_psia="1100***** double check this" Link="https://www.nitrousexpress.com/10lb-bottle-lightning-500-valve-6an-nipple-11100-6.asp" id="E2To5tkKnf_a1yXdmPDb-16">
                    <mxCell style="shape=mxgraph.pid.vessels.gas_bottle;html=1;pointerEvents=1;align=center;verticalLabelPosition=middle;verticalAlign=middle;dashed=0;rotation=-360;horizontal=0;labelPosition=center;deletable=0;textDirection=ltr;" parent="227" vertex="1">
                        <mxGeometry x="8" y="1.4210854715202004e-14" width="64.26413331256813" height="140" as="geometry"/>
                    </mxCell>
                </object>
                <mxCell id="E2To5tkKnf_a1yXdmPDb-17" value="N2O &lt;br&gt;Tank&lt;br&gt;[800 psia]&lt;br&gt;(??? cuft)" style="text;strokeColor=none;align=center;fillColor=none;html=1;verticalAlign=middle;whiteSpace=wrap;rounded=0;rotation=0;" parent="227" vertex="1">
                    <mxGeometry y="60.000000000000014" width="79.99999999999999" height="30" as="geometry"/>
                </mxCell>
                <mxCell id="E2To5tkKnf_a1yXdmPDb-65" style="edgeStyle=none;rounded=0;orthogonalLoop=1;jettySize=auto;html=1;entryX=0.485;entryY=0.005;entryDx=0;entryDy=0;entryPerimeter=0;" parent="227" source="E2To5tkKnf_a1yXdmPDb-16" target="E2To5tkKnf_a1yXdmPDb-16" edge="1">
                    <mxGeometry relative="1" as="geometry"/>
                </mxCell>
                <mxCell id="223" value="OX-G-091" style="text;strokeColor=none;align=center;fillColor=none;html=1;verticalAlign=middle;whiteSpace=wrap;rounded=0;" vertex="1" parent="1">
                    <mxGeometry x="52.77000000000001" y="137" width="83.79" height="30" as="geometry"/>
                </mxCell>
                <mxCell id="243" value="&lt;span style=&quot;&quot;&gt;CH-STC-101&lt;/span&gt;" style="text;strokeColor=none;align=center;fillColor=none;html=1;verticalAlign=middle;whiteSpace=wrap;rounded=0;rotation=0;" vertex="1" parent="1">
                    <mxGeometry x="402" y="715" width="100" height="30" as="geometry"/>
                </mxCell>
                <mxCell id="258" value="" style="group" vertex="1" connectable="0" parent="1">
                    <mxGeometry x="44" y="321" width="20" height="30" as="geometry"/>
                </mxCell>
                <mxCell id="256" value="" style="group;strokeColor=default;" vertex="1" connectable="0" parent="258">
                    <mxGeometry x="2.3762932957027374" y="13.256293295702733" width="15.23741340859452" height="14.747413408594468" as="geometry"/>
                </mxCell>
                <mxCell id="252" value="" style="pointerEvents=1;verticalLabelPosition=bottom;shadow=0;dashed=0;align=center;html=1;verticalAlign=top;shape=mxgraph.electrical.resistors.resistor_2;rotation=45;" vertex="1" parent="256">
                    <mxGeometry x="5.763706704297263" y="3.3237067042972512" width="10.25" height="2.05" as="geometry"/>
                </mxCell>
                <mxCell id="253" value="" style="pointerEvents=1;verticalLabelPosition=bottom;shadow=0;dashed=0;align=center;html=1;verticalAlign=top;shape=mxgraph.electrical.resistors.resistor_2;rotation=-225;" vertex="1" parent="256">
                    <mxGeometry x="5.763706704297263" y="9.373706704297263" width="10.25" height="2.05" as="geometry"/>
                </mxCell>
                <mxCell id="254" value="" style="pointerEvents=1;verticalLabelPosition=bottom;shadow=0;dashed=0;align=center;html=1;verticalAlign=top;shape=mxgraph.electrical.resistors.resistor_2;rotation=-135;" vertex="1" parent="256">
                    <mxGeometry x="-0.7762932957027431" y="9.373706704297263" width="10.25" height="2.05" as="geometry"/>
                </mxCell>
                <mxCell id="255" value="" style="pointerEvents=1;verticalLabelPosition=bottom;shadow=0;dashed=0;align=center;html=1;verticalAlign=top;shape=mxgraph.electrical.resistors.resistor_2;rotation=-45;" vertex="1" parent="256">
                    <mxGeometry x="-0.7762932957027431" y="3.3237067042972512" width="10.25" height="2.05" as="geometry"/>
                </mxCell>
                <mxCell id="244" value="" style="endArrow=none;html=1;" edge="1" parent="258">
                    <mxGeometry width="50" height="50" relative="1" as="geometry">
                        <mxPoint x="10" y="13" as="sourcePoint"/>
                        <mxPoint x="10" as="targetPoint"/>
                    </mxGeometry>
                </mxCell>
                <mxCell id="250" value="" style="endArrow=none;html=1;" edge="1" parent="258">
                    <mxGeometry width="50" height="50" relative="1" as="geometry">
                        <mxPoint x="20" y="30" as="sourcePoint"/>
                        <mxPoint y="30" as="targetPoint"/>
                    </mxGeometry>
                </mxCell>
                <mxCell id="259" value="&lt;span style=&quot;&quot;&gt;OX-LC&lt;/span&gt;" style="text;strokeColor=none;align=center;fillColor=none;html=1;verticalAlign=middle;whiteSpace=wrap;rounded=0;rotation=0;" vertex="1" parent="1">
                    <mxGeometry x="48.89" y="327" width="100" height="30" as="geometry"/>
                </mxCell>
                <mxCell id="269" value="&lt;span style=&quot;&quot;&gt;CH-LC&lt;/span&gt;" style="text;strokeColor=none;align=center;fillColor=none;html=1;verticalAlign=middle;whiteSpace=wrap;rounded=0;rotation=0;" vertex="1" parent="1">
                    <mxGeometry x="331.4" y="530" width="100" height="30" as="geometry"/>
                </mxCell>
                <mxCell id="261" value="" style="group;strokeColor=default;rotation=-180;" vertex="1" connectable="0" parent="1">
                    <mxGeometry x="372" y="562" width="15.23741340859452" height="14.747413408594468" as="geometry"/>
                </mxCell>
                <mxCell id="262" value="" style="pointerEvents=1;verticalLabelPosition=bottom;shadow=0;dashed=0;align=center;html=1;verticalAlign=top;shape=mxgraph.electrical.resistors.resistor_2;rotation=-135;" vertex="1" parent="261">
                    <mxGeometry x="-1" y="9" width="10.25" height="2.05" as="geometry"/>
                </mxCell>
                <mxCell id="263" value="" style="pointerEvents=1;verticalLabelPosition=bottom;shadow=0;dashed=0;align=center;html=1;verticalAlign=top;shape=mxgraph.electrical.resistors.resistor_2;rotation=-405;" vertex="1" parent="261">
                    <mxGeometry x="-1" y="3" width="10.25" height="2.05" as="geometry"/>
                </mxCell>
                <mxCell id="264" value="" style="pointerEvents=1;verticalLabelPosition=bottom;shadow=0;dashed=0;align=center;html=1;verticalAlign=top;shape=mxgraph.electrical.resistors.resistor_2;rotation=-315;" vertex="1" parent="261">
                    <mxGeometry x="6" y="3" width="10.25" height="2.05" as="geometry"/>
                </mxCell>
                <mxCell id="265" value="" style="pointerEvents=1;verticalLabelPosition=bottom;shadow=0;dashed=0;align=center;html=1;verticalAlign=top;shape=mxgraph.electrical.resistors.resistor_2;rotation=-225;" vertex="1" parent="261">
                    <mxGeometry x="6" y="9" width="10.25" height="2.05" as="geometry"/>
                </mxCell>
                <mxCell id="266" value="" style="endArrow=none;html=1;entryX=0.5;entryY=1;entryDx=0;entryDy=0;dashed=1;dashPattern=8 8;strokeWidth=0.5;" edge="1" parent="1" target="73">
                    <mxGeometry width="50" height="50" relative="1" as="geometry">
                        <mxPoint x="380" y="577" as="sourcePoint"/>
                        <mxPoint x="380" y="590" as="targetPoint"/>
                        <Array as="points">
                            <mxPoint x="380" y="620"/>
                        </Array>
                    </mxGeometry>
                </mxCell>
                <mxCell id="267" value="" style="endArrow=none;html=1;" edge="1" parent="1">
                    <mxGeometry width="50" height="50" relative="1" as="geometry">
                        <mxPoint x="370" y="560" as="sourcePoint"/>
                        <mxPoint x="390" y="560" as="targetPoint"/>
                    </mxGeometry>
                </mxCell>
                <mxCell id="76" value="Injector" style="text;strokeColor=none;align=center;fillColor=none;html=1;verticalAlign=middle;whiteSpace=wrap;rounded=0;" parent="1" vertex="1">
                    <mxGeometry x="331.79499999999996" y="625" width="97.21" height="30" as="geometry"/>
                </mxCell>
                <mxCell id="307" value="" style="verticalLabelPosition=bottom;align=center;html=1;verticalAlign=top;pointerEvents=1;dashed=0;shape=mxgraph.pid2valves.valve;valveType=check;rounded=1;strokeWidth=2;fontSize=2;fillColor=none;gradientColor=default;rotation=90;" vertex="1" parent="1">
                    <mxGeometry x="174.83" y="479" width="30" height="20" as="geometry"/>
                </mxCell>
                <mxCell id="314" value="" style="edgeStyle=none;rounded=1;html=1;strokeWidth=8;fontSize=2;endArrow=none;endFill=0;entryX=0;entryY=0.7;entryDx=0;entryDy=0;entryPerimeter=0;fillColor=#f8cecc;strokeColor=#b85450;startArrow=none;exitX=1;exitY=0.7;exitDx=0;exitDy=0;exitPerimeter=0;" edge="1" parent="1">
                    <mxGeometry relative="1" as="geometry">
                        <mxPoint x="599.94" y="463" as="sourcePoint"/>
                        <mxPoint x="599.94" y="471" as="targetPoint"/>
                    </mxGeometry>
                </mxCell>
                <mxCell id="312" value="" style="verticalLabelPosition=bottom;align=center;html=1;verticalAlign=top;pointerEvents=1;dashed=0;shape=mxgraph.pid2valves.valve;valveType=check;rounded=1;strokeWidth=2;fontSize=2;fillColor=none;gradientColor=default;rotation=90;" vertex="1" parent="1">
                    <mxGeometry x="585" y="476" width="30" height="20" as="geometry"/>
                </mxCell>
                <mxCell id="14" value="" style="verticalLabelPosition=bottom;align=center;html=1;verticalAlign=top;pointerEvents=1;dashed=0;shape=mxgraph.pid2valves.valve;valveType=gate;actuator=solenoid;fontSize=2;rotation=90;points=[[0,0.7,0,0,0],[1,0.7,0,60,0]];" parent="1" vertex="1">
                    <mxGeometry x="588" y="423" width="40" height="40" as="geometry"/>
                </mxCell>
                <mxCell id="316" value="" style="rounded=0;orthogonalLoop=1;jettySize=auto;html=1;fillColor=#dae8fc;strokeColor=#6c8ebf;endArrow=none;endFill=0;strokeWidth=6;exitX=1.009;exitY=0.692;exitDx=0;exitDy=0;exitPerimeter=0;" edge="1" parent="1" source="18">
                    <mxGeometry relative="1" as="geometry">
                        <mxPoint x="100.66337999999988" y="379.00000000000006" as="sourcePoint"/>
                        <mxPoint x="191" y="473" as="targetPoint"/>
                    </mxGeometry>
                </mxCell>
                <mxCell id="317" value="" style="group;rotation=-180;" vertex="1" connectable="0" parent="1">
                    <mxGeometry x="190" y="220" width="160" height="95.5" as="geometry"/>
                </mxCell>
                <mxCell id="294" value="" style="edgeStyle=none;rounded=0;orthogonalLoop=1;jettySize=auto;html=1;endArrow=none;endFill=0;fillColor=#dae8fc;strokeColor=#6c8ebf;strokeWidth=1;" edge="1" parent="317">
                    <mxGeometry relative="1" as="geometry">
                        <mxPoint x="50" y="80" as="sourcePoint"/>
                        <mxPoint y="80" as="targetPoint"/>
                    </mxGeometry>
                </mxCell>
                <mxCell id="295" value="" style="group;rotation=-270;" vertex="1" connectable="0" parent="317">
                    <mxGeometry x="50" y="3" width="15" height="24" as="geometry"/>
                </mxCell>
                <mxCell id="296" value="" style="ellipse;whiteSpace=wrap;html=1;aspect=fixed;rotation=-270;" vertex="1" parent="295">
                    <mxGeometry x="4" y="4" width="15" height="15" as="geometry"/>
                </mxCell>
                <mxCell id="297" value="" style="endArrow=none;html=1;" edge="1" parent="295">
                    <mxGeometry width="50" height="50" relative="1" as="geometry">
                        <mxPoint x="-5" y="12" as="sourcePoint"/>
                        <mxPoint x="4" y="12" as="targetPoint"/>
                        <Array as="points"/>
                    </mxGeometry>
                </mxCell>
                <mxCell id="298" value="" style="endArrow=none;html=1;entryX=1;entryY=0;entryDx=0;entryDy=0;exitX=0;exitY=1;exitDx=0;exitDy=0;" edge="1" parent="295" source="296" target="296">
                    <mxGeometry width="50" height="50" relative="1" as="geometry">
                        <mxPoint x="-31" y="-30" as="sourcePoint"/>
                        <mxPoint x="19" y="20" as="targetPoint"/>
                    </mxGeometry>
                </mxCell>
                <mxCell id="299" value="" style="endArrow=none;html=1;entryX=0;entryY=0;entryDx=0;entryDy=0;exitX=1;exitY=1;exitDx=0;exitDy=0;" edge="1" parent="295" source="296" target="296">
                    <mxGeometry width="50" height="50" relative="1" as="geometry">
                        <mxPoint x="-3" y="17" as="sourcePoint"/>
                        <mxPoint x="7" y="27" as="targetPoint"/>
                    </mxGeometry>
                </mxCell>
                <mxCell id="300" value="" style="edgeStyle=none;rounded=0;orthogonalLoop=1;jettySize=auto;html=1;endArrow=none;endFill=0;fillColor=#dae8fc;strokeColor=#6c8ebf;strokeWidth=1;" edge="1" parent="317">
                    <mxGeometry relative="1" as="geometry">
                        <mxPoint x="45" y="80" as="sourcePoint"/>
                        <mxPoint x="45" y="14" as="targetPoint"/>
                    </mxGeometry>
                </mxCell>
                <mxCell id="301" value="" style="group;rotation=-270;" vertex="1" connectable="0" parent="317">
                    <mxGeometry x="50" y="68" width="15" height="24" as="geometry"/>
                </mxCell>
                <mxCell id="302" value="" style="ellipse;whiteSpace=wrap;html=1;aspect=fixed;rotation=-270;" vertex="1" parent="301">
                    <mxGeometry x="4" y="4" width="15" height="15" as="geometry"/>
                </mxCell>
                <mxCell id="303" value="" style="endArrow=none;html=1;" edge="1" parent="301">
                    <mxGeometry width="50" height="50" relative="1" as="geometry">
                        <mxPoint x="-5" y="12" as="sourcePoint"/>
                        <mxPoint x="4" y="12" as="targetPoint"/>
                        <Array as="points"/>
                    </mxGeometry>
                </mxCell>
                <mxCell id="304" value="T" style="text;strokeColor=none;align=center;fillColor=none;html=1;verticalAlign=middle;whiteSpace=wrap;rounded=0;textDirection=ltr;rotation=-270;" vertex="1" parent="301">
                    <mxGeometry x="9" y="7" width="7.5" height="10" as="geometry"/>
                </mxCell>
                <mxCell id="305" value="&lt;span style=&quot;&quot;&gt;OX-PT-093&lt;/span&gt;" style="text;strokeColor=none;align=center;fillColor=none;html=1;verticalAlign=middle;whiteSpace=wrap;rounded=0;rotation=0;" vertex="1" parent="317">
                    <mxGeometry x="60" width="100" height="30" as="geometry"/>
                </mxCell>
                <mxCell id="306" value="&lt;span style=&quot;&quot;&gt;OX-TC-094&lt;/span&gt;" style="text;strokeColor=none;align=center;fillColor=none;html=1;verticalAlign=middle;whiteSpace=wrap;rounded=0;rotation=0;" vertex="1" parent="317">
                    <mxGeometry x="60" y="66" width="100" height="30" as="geometry"/>
                </mxCell>
                <mxCell id="320" value="" style="verticalLabelPosition=bottom;aspect=fixed;html=1;verticalAlign=top;fillColor=strokeColor;align=center;outlineConnect=0;shape=mxgraph.fluid_power.x11820;points=[[0.5,1,0]];rotation=0;" vertex="1" parent="1">
                    <mxGeometry x="522.57" y="49" width="16.64" height="25" as="geometry"/>
                </mxCell>
                <mxCell id="321" value="N2-G-014" style="text;strokeColor=none;align=center;fillColor=none;html=1;verticalAlign=middle;whiteSpace=wrap;rounded=0;" vertex="1" parent="1">
                    <mxGeometry x="492" y="22.5" width="83.79" height="30" as="geometry"/>
                </mxCell>
                <mxCell id="322" value="" style="verticalLabelPosition=bottom;aspect=fixed;html=1;verticalAlign=top;fillColor=strokeColor;align=center;outlineConnect=0;shape=mxgraph.fluid_power.x11820;points=[[0.5,1,0]];rotation=0;" vertex="1" parent="1">
                    <mxGeometry x="591.6800000000001" y="48" width="16.64" height="25" as="geometry"/>
                </mxCell>
                <mxCell id="323" value="N2-G-016" style="text;strokeColor=none;align=center;fillColor=none;html=1;verticalAlign=middle;whiteSpace=wrap;rounded=0;" vertex="1" parent="1">
                    <mxGeometry x="558.11" y="22.5" width="83.79" height="30" as="geometry"/>
                </mxCell>
                <mxCell id="325" value="" style="edgeStyle=none;rounded=0;orthogonalLoop=1;jettySize=auto;html=1;endArrow=none;endFill=0;fillColor=#d5e8d4;strokeColor=#82b366;strokeWidth=4;entryX=0.5;entryY=0;entryDx=0;entryDy=0;entryPerimeter=0;" edge="1" parent="1">
                    <mxGeometry relative="1" as="geometry">
                        <mxPoint x="600" y="100" as="sourcePoint"/>
                        <mxPoint x="600.2099999999999" y="72" as="targetPoint"/>
                    </mxGeometry>
                </mxCell>
                <mxCell id="331" value="" style="edgeStyle=orthogonalEdgeStyle;rounded=0;orthogonalLoop=1;jettySize=auto;html=1;endArrow=none;endFill=0;fillColor=#dae8fc;strokeColor=#6c8ebf;strokeWidth=1;exitX=0.283;exitY=0.067;exitDx=0;exitDy=0;exitPerimeter=0;" edge="1" parent="1" source="E2To5tkKnf_a1yXdmPDb-16">
                    <mxGeometry relative="1" as="geometry">
                        <mxPoint x="28.000000000000004" y="179" as="sourcePoint"/>
                        <mxPoint x="28.000000000000004" y="166" as="targetPoint"/>
                    </mxGeometry>
                </mxCell>
                <mxCell id="221" value="" style="group" vertex="1" connectable="0" parent="1">
                    <mxGeometry x="-23.909999999999997" y="142" width="112.07" height="30" as="geometry"/>
                </mxCell>
                <mxCell id="222" value="" style="verticalLabelPosition=bottom;aspect=fixed;html=1;verticalAlign=top;fillColor=strokeColor;align=center;outlineConnect=0;shape=mxgraph.fluid_power.x11820;points=[[0.5,1,0]];rotation=0;" vertex="1" parent="221">
                    <mxGeometry x="110.25" y="20.5" width="16.64" height="25" as="geometry"/>
                </mxCell>
                <mxCell id="326" value="OX-BD-090" style="group;verticalAlign=bottom;horizontal=1;labelPosition=center;verticalLabelPosition=top;align=center;" vertex="1" connectable="0" parent="221">
                    <mxGeometry x="38.019999999999996" y="18" width="29.890000000000043" height="7" as="geometry"/>
                </mxCell>
                <mxCell id="327" value="" style="endArrow=none;html=1;strokeWidth=1;rounded=1;" edge="1" parent="326">
                    <mxGeometry width="50" height="50" relative="1" as="geometry">
                        <mxPoint y="7" as="sourcePoint"/>
                        <mxPoint x="10" y="7" as="targetPoint"/>
                    </mxGeometry>
                </mxCell>
                <mxCell id="328" value="" style="endArrow=none;html=1;strokeWidth=1;fontSize=2;" edge="1" parent="326">
                    <mxGeometry width="50" height="50" relative="1" as="geometry">
                        <mxPoint x="19.890000000000043" y="7" as="sourcePoint"/>
                        <mxPoint x="29.890000000000043" y="7" as="targetPoint"/>
                    </mxGeometry>
                </mxCell>
                <mxCell id="329" value="" style="verticalLabelPosition=bottom;verticalAlign=top;html=1;shape=mxgraph.basic.half_circle;rotation=-180;" vertex="1" parent="326">
                    <mxGeometry x="7" width="14" height="7" as="geometry"/>
                </mxCell>
                <mxCell id="333" value="OX-CV-096" style="text;strokeColor=none;align=center;fillColor=none;html=1;verticalAlign=middle;whiteSpace=wrap;rounded=0;" vertex="1" parent="1">
                    <mxGeometry x="81.61999999999999" y="474" width="97.21" height="30" as="geometry"/>
                </mxCell>
                <mxCell id="336" value="" style="group;rotation=-90;" vertex="1" connectable="0" parent="1">
                    <mxGeometry x="530" y="313" width="15" height="24" as="geometry"/>
                </mxCell>
                <mxCell id="337" value="" style="ellipse;whiteSpace=wrap;html=1;aspect=fixed;rotation=-90;" vertex="1" parent="336">
                    <mxGeometry x="-4" y="5" width="15" height="15" as="geometry"/>
                </mxCell>
                <mxCell id="338" value="" style="endArrow=none;html=1;" edge="1" parent="336">
                    <mxGeometry width="50" height="50" relative="1" as="geometry">
                        <mxPoint x="20" y="12" as="sourcePoint"/>
                        <mxPoint x="11" y="12" as="targetPoint"/>
                        <Array as="points"/>
                    </mxGeometry>
                </mxCell>
                <mxCell id="339" value="T" style="text;strokeColor=none;align=center;fillColor=none;html=1;verticalAlign=middle;whiteSpace=wrap;rounded=0;textDirection=ltr;rotation=-90;" vertex="1" parent="336">
                    <mxGeometry x="-1" y="7" width="7.5" height="10" as="geometry"/>
                </mxCell>
                <mxCell id="340" value="&lt;span style=&quot;&quot;&gt;F-TC-50&lt;/span&gt;" style="text;strokeColor=none;align=center;fillColor=none;html=1;verticalAlign=middle;whiteSpace=wrap;rounded=0;" vertex="1" parent="1">
                    <mxGeometry x="430.5" y="311" width="100" height="30" as="geometry"/>
                </mxCell>
                <mxCell id="341" value="F-V-054" style="text;strokeColor=none;align=center;fillColor=none;html=1;verticalAlign=middle;whiteSpace=wrap;rounded=0;" vertex="1" parent="1">
                    <mxGeometry x="502" y="471" width="97.21" height="30" as="geometry"/>
                </mxCell>
                <mxCell id="342" value="N2-CV-021" style="text;strokeColor=none;align=center;fillColor=none;html=1;verticalAlign=middle;whiteSpace=wrap;rounded=0;" vertex="1" parent="1">
                    <mxGeometry x="221.82999999999998" y="474" width="97.21" height="30" as="geometry"/>
                </mxCell>
                <mxCell id="343" value="N2-CV-022" style="text;strokeColor=none;align=center;fillColor=none;html=1;verticalAlign=middle;whiteSpace=wrap;rounded=0;" vertex="1" parent="1">
                    <mxGeometry x="343.4" y="474" width="97.21" height="30" as="geometry"/>
                </mxCell>
                <mxCell id="353" value="" style="edgeStyle=orthogonalEdgeStyle;rounded=0;orthogonalLoop=1;jettySize=auto;html=1;endArrow=none;endFill=0;fillColor=#d5e8d4;strokeColor=#82b366;strokeWidth=4;exitX=1;exitY=0.7;exitDx=0;exitDy=0;exitPerimeter=0;" edge="1" parent="1">
                    <mxGeometry relative="1" as="geometry">
                        <mxPoint x="571.25" y="102" as="sourcePoint"/>
                        <mxPoint x="599.9756097560978" y="177" as="targetPoint"/>
                    </mxGeometry>
                </mxCell>
                <mxCell id="354" value="" style="edgeStyle=orthogonalEdgeStyle;rounded=0;orthogonalLoop=1;jettySize=auto;html=1;endArrow=none;endFill=0;fillColor=#d5e8d4;strokeColor=#82b366;strokeWidth=4;exitX=1;exitY=0.7;exitDx=0;exitDy=0;exitPerimeter=0;entryX=0.507;entryY=1.001;entryDx=0;entryDy=0;entryPerimeter=0;" edge="1" parent="1" target="346">
                    <mxGeometry relative="1" as="geometry">
                        <mxPoint x="570.48" y="102" as="sourcePoint"/>
                        <mxPoint x="599.2056097560978" y="177" as="targetPoint"/>
                        <Array as="points">
                            <mxPoint x="680" y="102"/>
                        </Array>
                    </mxGeometry>
                </mxCell>
                <mxCell id="355" value="N2-PRV-017" style="text;strokeColor=none;align=center;fillColor=none;html=1;verticalAlign=middle;whiteSpace=wrap;rounded=0;" vertex="1" parent="1">
                    <mxGeometry x="638.1" y="34" width="83.79" height="30" as="geometry"/>
                </mxCell>
                <mxCell id="352" value="" style="group" vertex="1" connectable="0" parent="1">
                    <mxGeometry x="670" y="60" width="20" height="30" as="geometry"/>
                </mxCell>
                <mxCell id="346" value="" style="verticalLabelPosition=bottom;align=center;html=1;verticalAlign=top;pointerEvents=1;dashed=0;shape=mxgraph.pid2valves.valve;valveType=angle;actuator=none;strokeColor=default;" vertex="1" parent="352">
                    <mxGeometry y="7.5" width="20" height="22.5" as="geometry"/>
                </mxCell>
                <mxCell id="347" value="" style="endArrow=none;html=1;strokeWidth=1;" edge="1" parent="352">
                    <mxGeometry width="50" height="50" relative="1" as="geometry">
                        <mxPoint x="9.946666666666639" y="15.75" as="sourcePoint"/>
                        <mxPoint x="10" as="targetPoint"/>
                    </mxGeometry>
                </mxCell>
                <mxCell id="349" value="" style="endArrow=none;html=1;strokeWidth=1;" edge="1" parent="352">
                    <mxGeometry width="50" height="50" relative="1" as="geometry">
                        <mxPoint x="6.666666666666666" y="8.25" as="sourcePoint"/>
                        <mxPoint x="13.333333333333332" y="0.75" as="targetPoint"/>
                    </mxGeometry>
                </mxCell>
                <mxCell id="350" value="" style="endArrow=none;html=1;strokeWidth=1;" edge="1" parent="352">
                    <mxGeometry width="50" height="50" relative="1" as="geometry">
                        <mxPoint x="6.666666666666666" y="11.25" as="sourcePoint"/>
                        <mxPoint x="13.333333333333332" y="3.75" as="targetPoint"/>
                    </mxGeometry>
                </mxCell>
                <mxCell id="351" value="" style="endArrow=none;html=1;strokeWidth=1;" edge="1" parent="352">
                    <mxGeometry width="50" height="50" relative="1" as="geometry">
                        <mxPoint x="6.666666666666666" y="15" as="sourcePoint"/>
                        <mxPoint x="13.333333333333332" y="7.5" as="targetPoint"/>
                    </mxGeometry>
                </mxCell>
            </root>
        </mxGraphModel>
    </diagram>
</mxfile>